<?xml version="1.0" encoding="UTF-8"?>
<svg width="1200pt" height="1200pt" version="1.1" viewBox="0 0 1200 1200" xmlns="http://www.w3.org/2000/svg">
 <path d="m464.06 792v220.5c0 69.75-56.812 126.56-126.56 126.56s-126.56-56.812-126.56-126.56v-220.5c1.5 0.1875 3 0.1875 4.6875 0.1875h243.74c1.6875 0 3.1875 0 4.6875-0.1875zm-22.5-635.44-30-75c-5.0625-12.562-17.062-20.625-30.562-20.625h-87c-13.5 0-25.5 8.0625-30.562 20.625l-30 75c-3.1875 7.875-3.1875 16.5 0 24.375l33.75 84.188v386.44h140.63v-386.44l33.75-84.188c3.1875-7.875 3.1875-16.5 0-24.375zm17.812 523.13h-243.74c-23.297 0-42.188 18.891-42.188 42.188s18.891 42.188 42.188 42.188h243.74c23.297 0 42.188-18.891 42.188-42.188s-18.891-42.188-42.188-42.188zm459.05-612.89c-10.312-6.75-23.391-7.3594-34.172-1.5469-10.734 5.7656-17.109 16.547-17.109 28.734v164.63l-79.688 47.812-79.688-47.812 0.046875-164.81c0-12.047-6.6094-23.156-17.25-28.969-10.547-5.7656-22.781-5.2969-32.719 1.125-69.984 45.281-110.86 121.87-109.36 204.98 1.5938 87.234 52.781 168.1 131.21 208.45v551.81c0 59.438 48.375 107.81 107.81 107.81s107.81-48.375 107.81-107.81v-551.53c80.016-40.547 131.26-123.24 131.26-213.14 0-80.672-40.406-155.39-108.14-199.78z" fill="#fff"/>
</svg>
