<?xml version="1.0" encoding="UTF-8"?>
<svg width="1200pt" height="1200pt" version="1.1" viewBox="0 0 1200 1200" xmlns="http://www.w3.org/2000/svg">
 <path d="m600 56.25c-300.1 0-543.74 243.66-543.74 543.74 0 300.09 243.66 543.74 543.74 543.74 300.09 0 543.74-243.66 543.74-543.74 0-300.09-243.66-543.74-543.74-543.74zm0 131.26c-227.68 0-412.5 184.82-412.5 412.5 0 227.68 184.82 412.5 412.5 412.5s412.5-184.82 412.5-412.5c0-227.68-184.82-412.5-412.5-412.5zm0 37.5c206.95 0 375 168.05 375 375 0 206.95-168.05 375-375 375s-375-168.05-375-375c0-206.95 168.05-375 375-375zm0 18.75c-196.6 0-356.26 159.66-356.26 356.26s159.66 356.26 356.26 356.26 356.26-159.66 356.26-356.26-159.66-356.26-356.26-356.26zm0 37.5c175.92 0 318.74 142.82 318.74 318.74 0 175.92-142.82 318.74-318.74 318.74-175.92 0-318.74-142.82-318.74-318.74 0-175.92 142.82-318.74 318.74-318.74zm0 600c31.031 0 56.25-25.219 56.25-56.25s-25.219-56.25-56.25-56.25-56.25 25.219-56.25 56.25 25.219 56.25 56.25 56.25zm0-37.5c-10.359 0-18.75-8.3906-18.75-18.75 0-10.359 8.3906-18.75 18.75-18.75s18.75 8.3906 18.75 18.75c0 10.359-8.3906 18.75-18.75 18.75zm-243.56-103.12c15.516 26.906 49.969 36.094 76.828 20.578 26.906-15.516 36.094-49.969 20.578-76.828-15.516-26.906-49.969-36.094-76.828-20.578-26.906 15.516-36.094 49.969-20.578 76.828zm487.13 0c15.516-26.906 6.2812-61.312-20.578-76.828-26.906-15.516-61.312-6.2812-76.828 20.578-15.516 26.906-6.2812 61.312 20.578 76.828 26.906 15.516 61.312 6.2812 76.828-20.578zm-454.64-18.75c-5.1562-8.9531-2.1094-20.438 6.8438-25.594s20.438-2.1094 25.594 6.8438c5.1562 8.9531 2.1094 20.438-6.8438 25.594s-20.438 2.1094-25.594-6.8438zm422.16 0c-5.1562 8.9531-16.641 12.047-25.594 6.8438-8.9531-5.1562-12.047-16.641-6.8438-25.594 5.1562-8.9531 16.641-12.047 25.594-6.8438 8.9531 5.1562 12.047 16.641 6.8438 25.594zm-211.08-178.13c-31.031 0-56.25 25.219-56.25 56.25s25.219 56.25 56.25 56.25 56.25-25.219 56.25-56.25-25.219-56.25-56.25-56.25zm0 37.5c10.359 0 18.75 8.3906 18.75 18.75s-8.3906 18.75-18.75 18.75-18.75-8.3906-18.75-18.75 8.3906-18.75 18.75-18.75zm-243.56-121.87c-15.516 26.906-6.2812 61.312 20.578 76.828 26.906 15.516 61.312 6.2812 76.828-20.578 15.516-26.906 6.2812-61.312-20.578-76.828-26.906-15.516-61.312-6.2812-76.828 20.578zm487.13 0c-15.516-26.906-49.969-36.094-76.828-20.578-26.906 15.516-36.094 49.969-20.578 76.828 15.516 26.906 49.969 36.094 76.828 20.578 26.906-15.516 36.094-49.969 20.578-76.828zm-454.64 18.75c5.1562-8.9531 16.641-12.047 25.594-6.8438 8.9531 5.1562 12.047 16.641 6.8438 25.594-5.1562 8.9531-16.641 12.047-25.594 6.8438-8.9531-5.1562-12.047-16.641-6.8438-25.594zm422.16 0c5.1562 8.9531 2.1094 20.438-6.8438 25.594-8.9531 5.1562-20.438 2.1094-25.594-6.8438-5.1562-8.9531-2.1094-20.438 6.8438-25.594 8.9531-5.1562 20.438-2.1094 25.594 6.8438zm-211.08-159.37c-31.031 0-56.25 25.219-56.25 56.25s25.219 56.25 56.25 56.25 56.25-25.219 56.25-56.25-25.219-56.25-56.25-56.25zm0 37.5c10.359 0 18.75 8.3906 18.75 18.75s-8.3906 18.75-18.75 18.75c-10.359 0-18.75-8.3906-18.75-18.75s8.3906-18.75 18.75-18.75z" fill="#fff" fill-rule="evenodd"/>
</svg>
