<?xml version="1.0" encoding="UTF-8"?>
<svg width="1200pt" height="1200pt" version="1.1" viewBox="0 0 1200 1200" xmlns="http://www.w3.org/2000/svg">
 <path d="m898.32 205.31c46.926 8.3789 85.477 50.281 92.18 58.66l73.742 135.75h112.29c13.406 0 23.465 10.055 23.465 21.789v46.926c0 11.73-10.055 21.789-23.465 21.789h-63.688l33.52 31.844 33.52 142.46v315.08c0 20.113-15.082 35.195-35.195 35.195h-155.87c-18.438 0-35.195-15.082-35.195-35.195v-41.898h-708.94v41.898c0 20.113-15.082 35.195-35.195 35.195h-155.87c-18.438 0-35.195-15.082-35.195-35.195 0-105.59 1.6758-209.5 1.6758-315.08l31.844-142.46 33.52-31.844h-63.688c-11.73 0-21.789-10.055-21.789-21.789v-46.926c0-11.73 10.055-21.789 21.789-21.789h113.96l73.742-135.75c5.0273-8.3789 43.574-50.281 92.18-58.66 182.68-26.816 413.96-26.816 596.65 0zm-219.55 603.35c8.3789 0 13.406-6.7031 13.406-13.406s-5.0273-11.73-13.406-11.73h-159.22c-6.7031 0-11.73 5.0273-11.73 11.73s5.0273 13.406 11.73 13.406zm28.492-46.926c6.7031 0 11.73-6.7031 11.73-13.406s-5.0273-13.406-11.73-13.406h-214.52c-6.7031 0-13.406 6.7031-13.406 13.406s6.7031 13.406 13.406 13.406zm38.547-46.926c6.7031 0 11.73-6.7031 11.73-13.406s-5.0273-13.406-11.73-13.406h-291.62c-6.7031 0-13.406 6.7031-13.406 13.406s6.7031 13.406 13.406 13.406zm-437.43-33.52h-175.98c-13.406 0-23.465 10.055-23.465 23.465v51.957c0 13.406 10.055 23.465 23.465 23.465h175.98c11.73 0 23.465-10.055 23.465-23.465v-51.957c0-13.406-11.73-23.465-23.465-23.465zm583.24 0h174.3c13.406 0 25.141 10.055 25.141 23.465v51.957c0 13.406-11.73 23.465-25.141 23.465h-174.3c-13.406 0-23.465-10.055-23.465-23.465v-51.957c0-13.406 10.055-23.465 23.465-23.465z" fill="#fff" fill-rule="evenodd"/>
</svg>
